<?xml version="1.0" encoding="utf-8"?>
<svg role="img" viewBox="15 15 370 370" xmlns="http://www.w3.org/2000/svg">
  <style>svg {enable-background:new 0 0 400 400}</style>
  <style>.st0{fill:#446ca9}.st1{fill:#76c4d5}</style>
  <g transform="matrix(1, 0, 0, 1, -1.8, 0.474001)">
    <path fill="#FF3354" d="M 345.841 227.288 L 388.303 227.288 C 388.689 227.288 389 227.6 389 227.985 L 389 237.506 C 389 237.891 388.689 238.203 388.303 238.203 L 345.841 238.203 C 345.455 238.203 345.144 237.891 345.144 237.506 L 345.144 227.985 C 345.144 227.6 345.455 227.288 345.841 227.288 Z" fill-rule="evenodd"/>
    <path d="M 48.769 238.203 L 36.009 215.72 L 32.66 215.72 L 32.66 238.203 L 15 238.203 L 15 160.049 L 32.66 160.049 L 32.66 202.391 L 35.585 202.391 L 47.038 181.638 L 67.322 181.638 L 50.231 207.258 L 68.941 238.203 L 48.769 238.203 Z M 109.237 180.389 L 126.172 180.389 L 126.172 238.203 L 109.237 238.203 L 109.237 234.328 L 106.056 236.473 C 104.314 237.625 102.45 238.203 100.464 238.203 L 90.584 238.203 C 86.328 238.203 82.867 236.695 80.202 233.681 C 77.538 230.667 76.206 227.017 76.206 222.73 L 76.206 180.389 L 93.04 180.389 L 93.04 220.218 C 93.04 221.299 93.405 222.231 94.134 223.021 C 94.862 223.803 95.771 224.192 96.857 224.192 L 105.419 224.192 C 106.47 224.192 107.369 223.791 108.121 222.987 C 108.865 222.191 109.237 221.268 109.237 220.218 L 109.237 180.389 Z M 137.936 238.203 L 137.936 160.049 L 154.825 160.049 L 154.825 238.203 L 137.936 238.203 Z M 179.594 204.278 L 197.321 204.278 L 197.321 195.705 C 197.321 194.209 196.569 193.461 195.066 193.461 L 171.188 193.461 L 171.188 180.389 L 200.346 180.389 C 205.056 180.389 208.536 181.513 210.784 183.76 C 213.031 186.006 214.155 189.483 214.155 194.186 L 214.155 238.203 L 197.321 238.203 L 197.321 233.235 L 194.129 235.903 C 192.386 237.436 190.522 238.203 188.536 238.203 L 179.594 238.203 C 175.344 238.203 171.732 236.695 168.755 233.681 C 165.771 230.667 164.277 227.017 164.277 222.73 L 164.277 219.749 C 164.277 215.463 165.771 211.813 168.755 208.799 C 171.732 205.785 175.344 204.278 179.594 204.278 Z M 197.321 219.125 L 197.321 214.469 L 184.929 214.469 C 183.85 214.469 182.946 214.86 182.218 215.641 C 181.48 216.432 181.111 217.364 181.111 218.444 L 181.111 220.218 C 181.111 221.299 181.48 222.231 182.218 223.021 C 182.946 223.803 183.85 224.192 184.929 224.192 L 193.503 224.192 C 194.544 223.813 195.442 223.132 196.193 222.15 C 196.945 221.175 197.321 220.166 197.321 219.125 Z M 259.213 220.218 L 259.213 198.373 C 259.213 197.322 258.837 196.399 258.085 195.604 C 257.333 194.8 256.436 194.398 255.396 194.398 L 246.821 194.398 C 245.742 194.398 244.835 194.789 244.098 195.57 C 243.368 196.359 243.004 197.293 243.004 198.373 L 243.004 220.218 C 243.004 221.299 243.368 222.231 244.098 223.021 C 244.835 223.803 245.742 224.192 246.821 224.192 L 255.396 224.192 C 256.436 224.192 257.333 223.791 258.085 222.987 C 258.837 222.191 259.213 221.268 259.213 220.218 Z M 256.021 182.119 L 259.213 184.262 L 259.213 160.049 L 276.092 160.049 L 276.092 238.203 L 259.213 238.203 L 259.213 234.328 L 256.021 236.473 C 254.28 237.625 252.414 238.203 250.428 238.203 L 241.486 238.203 C 237.236 238.203 233.622 236.695 230.647 233.681 C 227.661 230.667 226.17 227.017 226.17 222.73 L 226.17 195.86 C 226.17 191.574 227.661 187.923 230.647 184.91 C 233.622 181.896 237.236 180.389 241.486 180.389 L 250.428 180.389 C 252.414 180.389 254.28 180.965 256.021 182.119 Z M 300.976 180.389 L 323.134 180.389 C 327.876 180.389 331.37 181.513 333.617 183.76 C 335.865 186.006 336.988 189.483 336.988 194.186 L 336.988 224.405 C 336.988 229.108 335.865 232.584 333.617 234.831 C 331.37 237.079 327.876 238.203 323.134 238.203 L 300.976 238.203 C 296.272 238.203 292.798 237.079 290.549 234.831 C 288.302 232.584 287.177 229.108 287.177 224.405 L 287.177 194.186 C 287.177 189.483 288.302 186.006 290.549 183.76 C 292.798 181.513 296.272 180.389 300.976 180.389 Z M 320.266 222.049 L 320.266 196.541 C 320.266 195.045 319.514 194.297 318.011 194.297 L 306.145 194.297 C 304.649 194.297 303.901 195.045 303.901 196.541 L 303.901 222.049 C 303.901 223.545 304.649 224.293 306.145 224.293 L 318.011 224.293 C 319.514 224.293 320.266 223.545 320.266 222.049 Z" style="white-space: pre; fill: rgb(0, 88, 127);"/>
  </g>
</svg>