<?xml version="1.0" encoding="utf-8"?>
<svg role="img" viewBox="21 16 184 184" xmlns="http://www.w3.org/2000/svg">
  <style>svg {enable-background:new 0 0 922.3 219.1}</style>
  <style>.st3{fill:#446ca9}.st5{fill:#76c4d5}.st7{fill:#333}</style>
  <path style="fill: rgb(52, 62, 148);" d="M 20.9 166.634 C 65.948 221.541 153.544 207.093 178.572 140.627 C 203.599 74.159 147.291 5.522 77.214 17.082 C 67.732 18.645 58.553 21.682 50.007 26.08 L 56.73 39.138 C 66.172 34.269 76.736 31.269 87.929 30.624 L 87.929 40.366 L 101.911 40.366 L 101.911 31.056 C 116.951 32.865 130.676 38.945 141.838 48.051 L 135.517 54.373 L 145.403 64.259 L 151.843 57.817 C 162.388 70.121 169.17 85.744 170.412 102.903 L 161.022 102.903 L 161.022 116.884 L 170.188 116.884 C 168.756 130.506 163.825 143.086 156.309 153.708 L 151.74 149.138 L 141.852 159.024 L 147.216 164.389 C 135.231 176.152 119.466 184.085 101.911 186.196 L 101.911 178.923 L 87.929 178.923 L 87.929 186.626 C 65.246 185.322 45.158 174.342 31.727 157.751 L 20.9 166.634 Z" transform="matrix(-1, 0, 0, -1, 205.520855, 216.199234)"/>
  <path d="M 116.818 71.569 L 116.818 57.591 L 64.8 57.591 L 64.585 113.279 L 78.586 113.316 L 78.586 71.596 L 116.818 71.569 Z" style="fill: rgb(245, 193, 46);" transform="matrix(-1, 0, 0, -1, 181.403, 170.907001)"/>
</svg>