<?xml version="1.0" encoding="utf-8"?>
<svg role="img" viewBox="2.71 -1.79 925.08 237.08" xmlns="http://www.w3.org/2000/svg">
  <style>svg {enable-background:new 0 0 922.3 219.1}</style>
  <style>.st3{fill:#446ca9}.st5{fill:#76c4d5}.st7{fill:#333}</style>
  <g transform="matrix(1.428564, 0, 0, 1.428564, -41.761677, -58.056541)">
    <path d="M 189.084 109.626 L 156.041 109.626 C 154.916 109.626 154.153 109.939 153.749 110.568 C 153.343 111.198 153.141 112.525 153.141 114.547 C 153.141 117.334 153.365 119.088 153.815 119.807 C 154.265 120.527 155.186 120.976 156.58 121.156 L 177.417 121.156 C 182.59 121.336 186.624 123.023 189.523 126.214 C 192.421 129.404 193.872 134.507 193.872 141.522 C 193.872 152.356 192.466 159.481 189.657 162.899 C 186.848 166.316 182.295 168.024 176 168.024 L 134.665 168.024 L 134.665 151.569 L 169.257 151.569 C 170.383 151.569 171.148 151.211 171.552 150.49 C 171.956 149.771 172.159 147.792 172.159 144.555 C 172.159 141.319 171.956 139.352 171.552 138.656 C 171.148 137.958 170.249 137.52 168.855 137.34 L 148.017 137.34 C 141.679 136.802 137.262 134.734 134.765 131.138 C 132.271 127.541 131.203 122.438 131.563 115.828 C 131.563 107.647 132.968 101.87 135.776 98.498 C 138.587 95.126 143.116 93.44 149.365 93.44 L 189.084 93.44 L 189.084 109.626 Z M 243.63 168.024 L 227.174 139.026 L 222.859 139.026 L 222.859 168.024 L 200.066 168.024 L 200.066 67.206 L 222.859 67.206 L 222.859 121.829 L 226.636 121.829 L 241.404 95.06 L 267.57 95.06 L 245.518 128.102 L 269.661 168.024 L 243.63 168.024 Z M 335.6 136.395 L 294.062 136.395 L 294.062 148.266 C 294.062 150.198 295.028 151.164 296.96 151.164 L 335.6 151.164 L 335.6 168.024 L 290.149 168.024 C 284.081 168.024 279.596 166.573 276.696 163.676 C 273.796 160.774 272.347 156.29 272.347 150.222 L 272.347 111.242 C 272.347 105.174 273.796 100.689 276.696 97.789 C 279.596 94.89 284.081 93.44 290.149 93.44 L 317.798 93.44 C 323.866 93.44 328.352 94.89 331.253 97.789 C 334.151 100.689 335.6 105.174 335.6 111.242 L 335.6 136.395 Z M 311.054 110.299 L 296.96 110.299 C 295.028 110.299 294.062 111.265 294.062 113.199 L 294.062 123.112 L 313.954 123.112 L 313.954 113.199 C 313.954 112.075 313.741 111.31 313.313 110.905 C 312.886 110.502 312.134 110.299 311.054 110.299 Z M 387.38 144.826 L 387.38 116.638 C 387.38 115.289 386.898 114.099 385.931 113.064 C 384.965 112.03 383.806 111.513 382.457 111.513 L 371.399 111.513 C 370.004 111.513 368.835 112.019 367.892 113.028 C 366.948 114.041 366.477 115.243 366.477 116.638 L 366.477 144.826 C 366.477 146.221 366.948 147.422 367.892 148.433 C 368.835 149.444 370.004 149.95 371.399 149.95 L 382.457 149.95 C 383.806 149.95 384.965 149.433 385.931 148.399 C 386.898 147.365 387.38 146.175 387.38 144.826 Z M 383.267 95.665 L 387.38 98.43 L 387.38 67.206 L 409.163 67.206 L 409.163 168.024 L 387.38 168.024 L 387.38 163.034 L 383.267 165.799 C 381.019 167.283 378.613 168.024 376.051 168.024 L 364.52 168.024 C 359.035 168.024 354.371 166.079 350.527 162.191 C 346.684 158.301 344.762 153.592 344.762 148.062 L 344.762 113.401 C 344.762 107.872 346.684 103.162 350.527 99.273 C 354.371 95.384 359.035 93.44 364.52 93.44 L 376.051 93.44 C 378.613 93.44 381.019 94.182 383.267 95.665 Z M 440.643 145.77 L 440.643 168.024 L 418.121 168.024 L 418.121 145.77 L 440.643 145.77 Z M 472.192 67.206 L 472.192 85.549 L 449.267 85.549 L 449.267 67.206 L 472.192 67.206 Z M 449.806 93.44 L 471.587 93.44 L 471.587 168.024 L 449.806 168.024 L 449.806 93.44 Z M 498.82 93.44 L 527.412 93.44 C 533.526 93.44 538.034 94.89 540.933 97.789 C 543.833 100.689 545.282 105.174 545.282 111.242 L 545.282 150.222 C 545.282 156.29 543.833 160.774 540.933 163.676 C 538.034 166.573 533.526 168.024 527.412 168.024 L 498.82 168.024 C 492.751 168.024 488.266 166.573 485.367 163.676 C 482.467 160.774 481.018 156.29 481.018 150.222 L 481.018 111.242 C 481.018 105.174 482.467 100.689 485.367 97.789 C 488.266 94.89 492.751 93.44 498.82 93.44 Z M 523.704 147.186 L 523.704 114.278 C 523.704 112.343 522.737 111.376 520.802 111.376 L 505.498 111.376 C 503.563 111.376 502.596 112.343 502.596 114.278 L 502.596 147.186 C 502.596 149.119 503.563 150.084 505.498 150.084 L 520.802 150.084 C 522.737 150.084 523.704 149.119 523.704 147.186 Z" style="fill: rgb(51, 51, 51); white-space: pre;"/>
    <path style="fill: rgb(52, 62, 148);" d="M 43.282 167.429 C 77.617 209.279 144.382 198.267 163.458 147.607 C 182.534 96.946 139.616 44.631 86.204 53.442 C 78.977 54.633 71.981 56.948 65.467 60.3 L 70.591 70.253 C 77.788 66.542 85.84 64.255 94.371 63.764 L 94.371 71.189 L 105.028 71.189 L 105.028 64.093 C 116.491 65.472 126.952 70.106 135.46 77.046 L 130.642 81.865 L 138.177 89.4 L 143.086 84.49 C 151.123 93.868 156.292 105.776 157.239 118.854 L 150.082 118.854 L 150.082 129.51 L 157.068 129.51 C 155.977 139.893 152.218 149.481 146.49 157.577 L 143.007 154.094 L 135.471 161.629 L 139.559 165.718 C 130.424 174.684 118.408 180.73 105.028 182.339 L 105.028 176.796 L 94.371 176.796 L 94.371 182.667 C 77.082 181.673 61.771 173.304 51.534 160.659 L 43.282 167.429 Z" transform="matrix(-1, 0, 0, -1, 211.350609, 245.629745)"/>
    <path d="M 116.39 94.972 L 116.39 84.318 L 76.742 84.318 L 76.578 126.763 L 87.25 126.791 L 87.25 94.992 L 116.39 94.972 Z" style="fill: rgb(245, 193, 46);" transform="matrix(-1, 0, 0, -1, 192.968002, 211.109001)"/>
  </g>
</svg>