<?xml version="1.0" encoding="utf-8"?>
<svg role="img" viewBox="-2.82 -4.07 419.64 80.14" xmlns="http://www.w3.org/2000/svg">
  <style>svg {enable-background:new 0 0 414 73}</style>
  <path fill="#FF3354" d="M 276.325 59.062 L 311.097 59.062 C 311.413 59.062 311.667 59.317 311.667 59.633 L 311.667 67.429 C 311.667 67.745 311.413 68 311.097 68 L 276.325 68 C 276.009 68 275.754 67.745 275.754 67.429 L 275.754 59.633 C 275.754 59.317 276.009 59.062 276.325 59.062 Z" fill-rule="evenodd"/>
  <path d="M 33.054 68 L 22.604 49.588 L 19.862 49.588 L 19.862 68 L 5.4 68 L 5.4 4 L 19.862 4 L 19.862 38.674 L 22.257 38.674 L 31.636 21.679 L 48.246 21.679 L 34.251 42.66 L 49.572 68 L 33.054 68 Z M 82.571 20.656 L 96.439 20.656 L 96.439 68 L 82.571 68 L 82.571 64.827 L 79.966 66.583 C 78.539 67.527 77.013 68 75.386 68 L 67.296 68 C 63.81 68 60.976 66.766 58.794 64.297 C 56.612 61.829 55.521 58.84 55.521 55.329 L 55.521 20.656 L 69.307 20.656 L 69.307 53.273 C 69.307 54.157 69.606 54.921 70.203 55.568 C 70.799 56.208 71.543 56.527 72.432 56.527 L 79.444 56.527 C 80.304 56.527 81.041 56.198 81.657 55.54 C 82.266 54.888 82.571 54.132 82.571 53.273 L 82.571 20.656 Z M 106.072 68 L 106.072 4 L 119.902 4 L 119.902 68 L 106.072 68 Z M 140.186 40.219 L 154.702 40.219 L 154.702 33.198 C 154.702 31.974 154.086 31.361 152.855 31.361 L 133.302 31.361 L 133.302 20.656 L 157.179 20.656 C 161.036 20.656 163.886 21.577 165.727 23.417 C 167.567 25.256 168.487 28.104 168.487 31.955 L 168.487 68 L 154.702 68 L 154.702 63.931 L 152.088 66.117 C 150.661 67.372 149.134 68 147.508 68 L 140.186 68 C 136.705 68 133.747 66.766 131.309 64.297 C 128.865 61.829 127.642 58.84 127.642 55.329 L 127.642 52.889 C 127.642 49.378 128.865 46.39 131.309 43.921 C 133.747 41.453 136.705 40.219 140.186 40.219 Z M 154.702 52.377 L 154.702 48.565 L 144.555 48.565 C 143.671 48.565 142.93 48.885 142.334 49.524 C 141.73 50.172 141.428 50.935 141.428 51.82 L 141.428 53.273 C 141.428 54.157 141.73 54.921 142.334 55.568 C 142.93 56.208 143.671 56.527 144.555 56.527 L 151.575 56.527 C 152.428 56.216 153.163 55.658 153.779 54.854 C 154.394 54.056 154.702 53.23 154.702 52.377 Z M 205.385 53.273 L 205.385 35.384 C 205.385 34.523 205.077 33.767 204.462 33.116 C 203.846 32.458 203.111 32.128 202.259 32.128 L 195.238 32.128 C 194.354 32.128 193.612 32.449 193.008 33.089 C 192.41 33.735 192.112 34.499 192.112 35.384 L 192.112 53.273 C 192.112 54.157 192.41 54.921 193.008 55.568 C 193.612 56.208 194.354 56.527 195.238 56.527 L 202.259 56.527 C 203.111 56.527 203.846 56.198 204.462 55.54 C 205.077 54.888 205.385 54.132 205.385 53.273 Z M 202.771 22.073 L 205.385 23.828 L 205.385 4 L 219.207 4 L 219.207 68 L 205.385 68 L 205.385 64.827 L 202.771 66.583 C 201.345 67.527 199.817 68 198.191 68 L 190.869 68 C 187.389 68 184.429 66.766 181.992 64.297 C 179.548 61.829 178.327 58.84 178.327 55.329 L 178.327 33.326 C 178.327 29.816 179.548 26.826 181.992 24.359 C 184.429 21.89 187.389 20.656 190.869 20.656 L 198.191 20.656 C 199.817 20.656 201.345 21.128 202.771 22.073 Z M 239.585 20.656 L 257.73 20.656 C 261.613 20.656 264.475 21.577 266.314 23.417 C 268.155 25.256 269.075 28.104 269.075 31.955 L 269.075 56.701 C 269.075 60.552 268.155 63.398 266.314 65.239 C 264.475 67.08 261.613 68 257.73 68 L 239.585 68 C 235.733 68 232.887 67.08 231.046 65.239 C 229.206 63.398 228.285 60.552 228.285 56.701 L 228.285 31.955 C 228.285 28.104 229.206 25.256 231.046 23.417 C 232.887 21.577 235.733 20.656 239.585 20.656 Z M 255.381 54.772 L 255.381 33.883 C 255.381 32.658 254.765 32.046 253.534 32.046 L 243.817 32.046 C 242.592 32.046 241.98 32.658 241.98 33.883 L 241.98 54.772 C 241.98 55.997 242.592 56.61 243.817 56.61 L 253.534 56.61 C 254.765 56.61 255.381 55.997 255.381 54.772 Z" style="white-space: pre; fill: rgb(0, 88, 127);"/>
</svg>